<svg xmlns="http://www.w3.org/2000/svg" viewBox="0 0 500 114"><defs><style>.cls-1{fill:#1a76d1;}.cls-2{fill:none;stroke:#000;stroke-miterlimit:10;}</style></defs><g id="Layer_2" data-name="Layer 2"><path d="M500,44.37v70.11H255.13V79.17h55.78l-12.6-29A23.78,23.78,0,0,0,276.5,35.89H254V.59h45.66a23.79,23.79,0,0,1,21.82,14.3l27.94,64.28H464.69V67.83a31.94,31.94,0,0,0-31.93-31.94H379.27V.59h77A43.78,43.78,0,0,1,500,44.37Z"/><path d="M221,.59H159.45a23.91,23.91,0,0,0-23.91,23.92V79.17H99.09V57.11A21.22,21.22,0,0,0,77.87,35.89H0v57a21.6,21.6,0,0,0,21.61,21.6H225.92a18.94,18.94,0,0,0,19-19v-71A23.91,23.91,0,0,0,221,.59ZM67.2,79.17H37.59a6.83,6.83,0,1,1,0-13.66H60.36a6.84,6.84,0,0,1,6.84,6.83ZM209.57,65.48a13.68,13.68,0,0,1-13.69,13.69h-25V49.58a13.69,13.69,0,0,1,13.69-13.69h11.35a13.69,13.69,0,0,1,13.69,13.69Z"/><path class="cls-1" d="M14,.59h3.89a14,14,0,0,1,14,14V32.48a0,0,0,0,1,0,0H14a14,14,0,0,1-14-14V14.59a14,14,0,0,1,14-14Z"/><path class="cls-1" d="M48.17.59h3.89a14,14,0,0,1,14,14v3.89a14,14,0,0,1-14,14H34.17a0,0,0,0,1,0,0V14.59A14,14,0,0,1,48.17.59Z"/><path class="cls-1" d="M376.42,0V35.33h-35.3V19.43A19.37,19.37,0,0,1,351.37,2.32a18.62,18.62,0,0,1,2.27-1A19.23,19.23,0,0,1,360.52,0Z"/><line class="cls-2" x1="179.38" y1="46.71" x2="201.03" y2="46.71"/><line class="cls-2" x1="179.38" y1="54.12" x2="201.03" y2="54.12"/><line class="cls-2" x1="179.38" y1="61.52" x2="201.03" y2="61.52"/><line class="cls-2" x1="179.38" y1="68.92" x2="201.03" y2="68.92"/></g></svg>